ffmpeg started on 2025-05-12 at 17:57:36
Report written to "D:\Convert\FFMetrics\reports\psnr_report-6.txt"
Log level: 32
Command line:
ffmpeg -hide_banner -nostdin -i "G:\\\xc0\xed\xe8\xec\xe5\\\xce\xed\xe3\xee\xe8\xed\xe3\xe8\\!_35_\xcb\xe5\xf2\xee_2024\\DreamCast\\\xce\xef\xe5\xf0\xe0\xf6\xe8\xff - \xd1\xe5\xec\xe5\xe9\xea\xe0 \xa8\xe4\xe7\xe0\xea\xf3\xf0\xe0\\[DC] Yozakura-san Chi no Daisakusen - 25_Telegram_HEVC.mkv" -i "G:\\\xc0\xed\xe8\xec\xe5\\\xce\xed\xe3\xee\xe8\xed\xe3\xe8\\!_35_\xcb\xe5\xf2\xee_2024\\DreamCast\\\xce\xef\xe5\xf0\xe0\xf6\xe8\xff - \xd1\xe5\xec\xe5\xe9\xea\xe0 \xa8\xe4\xe7\xe0\xea\xf3\xf0\xe0\\[DC] Yozakura-san Chi no Daisakusen - 25_Telegram.mp4" -lavfi "[0:v]settb=AVTB,setpts=PTS-STARTPTS,format=pix_fmts=yuv420p10,fps=24000/1001,scale=1920:1080:flags=bicubic[main];[1:v]settb=AVTB,setpts=PTS-STARTPTS,format=pix_fmts=yuv420p,fps=24000/1001,scale=1920:1080:flags=bicubic[ref];[main][ref]psnr=eof_action=endall:stats_file='D\\:/Convert/FFMetrics/logs/psnr_logfile-6.txt'" -f null -
Input #0, matroska,webm, from 'G:\Аниме\Онгоинги\!_35_Лето_2024\DreamCast\Операция - Семейка Ёдзакура\[DC] Yozakura-san Chi no Daisakusen - 25_Telegram_HEVC.mkv':
  Metadata:
    COMPATIBLE_BRANDS: isomiso2avc1mp41
    MAJOR_BRAND     : isom
    MINOR_VERSION   : 512
    ENCODER         : Lavf61.7.100
  Duration: 00:24:09.64, start: -0.021000, bitrate: 1356 kb/s
  Stream #0:0: Video: hevc (Main 10), yuv420p10le(tv, bt709, progressive), 1920x1080 [SAR 1:1 DAR 16:9], 23.98 fps, 23.98 tbr, 1k tbn (default)
      Metadata:
        HANDLER_NAME    : VideoHandler
        VENDOR_ID       : [0][0][0][0]
        ENCODER         : Lavc61.19.100 libx265
        BPS             : 1158667
        DURATION        : 00:24:09.531708333
        NUMBER_OF_FRAMES: 34754
        NUMBER_OF_BYTES : 209940636
        _STATISTICS_WRITING_APP: mkvpropedit v66.0.0 ('Josie') 64-bit
        _STATISTICS_WRITING_DATE_UTC: 2025-05-08 17:54:06
        _STATISTICS_TAGS: BPS DURATION NUMBER_OF_FRAMES NUMBER_OF_BYTES
  Stream #0:1: Audio: aac (LC), 48000 Hz, stereo, fltp (default)
      Metadata:
        HANDLER_NAME    : SoundHandler
        VENDOR_ID       : [0][0][0][0]
        ENCODER         : Lavc61.19.100 aac
        BPS             : 193472
        DURATION        : 00:24:09.642000000
        NUMBER_OF_FRAMES: 67953
        NUMBER_OF_BYTES : 35058177
        _STATISTICS_WRITING_APP: mkvpropedit v66.0.0 ('Josie') 64-bit
        _STATISTICS_WRITING_DATE_UTC: 2025-05-08 17:54:06
        _STATISTICS_TAGS: BPS DURATION NUMBER_OF_FRAMES NUMBER_OF_BYTES
Input #1, mov,mp4,m4a,3gp,3g2,mj2, from 'G:\Аниме\Онгоинги\!_35_Лето_2024\DreamCast\Операция - Семейка Ёдзакура\[DC] Yozakura-san Chi no Daisakusen - 25_Telegram.mp4':
  Metadata:
    major_brand     : isom
    minor_version   : 512
    compatible_brands: isomiso2avc1mp41
    encoder         : Lavf61.1.100
  Duration: 00:24:09.60, start: 0.000000, bitrate: 3668 kb/s
  Stream #1:0[0x1](und): Video: h264 (High) (avc1 / 0x31637661), yuv420p(tv, bt709, progressive), 1920x1080 [SAR 1:1 DAR 16:9], 3520 kb/s, 23.98 fps, 23.98 tbr, 24k tbn (default)
      Metadata:
        handler_name    : VideoHandler
        vendor_id       : [0][0][0][0]
        encoder         : Lavc61.3.100 h264_qsv
  Stream #1:1[0x2](und): Audio: aac (HE-AACv2) (mp4a / 0x6134706D), 48000 Hz, stereo, fltp, 144 kb/s (default)
      Metadata:
        handler_name    : SoundHandler
        vendor_id       : [0][0][0][0]
Stream mapping:
  Stream #0:0 (hevc) -> settb:default
  Stream #1:0 (h264) -> settb:default
  psnr:default -> Stream #0:0 (wrapped_avframe)
  Stream #0:1 -> #0:1 (aac (native) -> pcm_s16le (native))
Output #0, null, to 'pipe:':
  Metadata:
    COMPATIBLE_BRANDS: isomiso2avc1mp41
    MAJOR_BRAND     : isom
    MINOR_VERSION   : 512
    encoder         : Lavf61.7.100
  Stream #0:0: Video: wrapped_avframe, yuv420p10le(tv, bt709, progressive), 1920x1080 [SAR 1:1 DAR 16:9], q=2-31, 200 kb/s, 23.98 fps, 23.98 tbn
      Metadata:
        encoder         : Lavc61.19.100 wrapped_avframe
  Stream #0:1: Audio: pcm_s16le, 48000 Hz, stereo, s16, 1536 kb/s (default)
      Metadata:
        HANDLER_NAME    : SoundHandler
        VENDOR_ID       : [0][0][0][0]
        _STATISTICS_TAGS: BPS DURATION NUMBER_OF_FRAMES NUMBER_OF_BYTES
        BPS             : 193472
        DURATION        : 00:24:09.642000000
        NUMBER_OF_FRAMES: 67953
        NUMBER_OF_BYTES : 35058177
        _STATISTICS_WRITING_APP: mkvpropedit v66.0.0 ('Josie') 64-bit
        _STATISTICS_WRITING_DATE_UTC: 2025-05-08 17:54:06
        encoder         : Lavc61.19.100 pcm_s16le
frame=  175 fps=0.0 q=-0.0 size=N/A time=00:00:07.29 bitrate=N/A speed=  14x    frame=  410 fps=397 q=-0.0 size=N/A time=00:00:17.10 bitrate=N/A speed=16.6x    frame=  686 fps=441 q=-0.0 size=N/A time=00:00:28.61 bitrate=N/A speed=18.4x    frame=  942 fps=452 q=-0.0 size=N/A time=00:00:39.28 bitrate=N/A speed=18.9x    frame= 1166 fps=448 q=-0.0 size=N/A time=00:00:48.63 bitrate=N/A speed=18.7x    frame= 1418 fps=456 q=-0.0 size=N/A time=00:00:59.14 bitrate=N/A speed=  19x    frame= 1696 fps=468 q=-0.0 size=N/A time=00:01:10.73 bitrate=N/A speed=19.5x    frame= 1970 fps=475 q=-0.0 size=N/A time=00:01:22.16 bitrate=N/A speed=19.8x    frame= 2240 fps=480 q=-0.0 size=N/A time=00:01:33.42 bitrate=N/A speed=  20x    frame= 2495 fps=482 q=-0.0 size=N/A time=00:01:44.06 bitrate=N/A speed=20.1x    frame= 2701 fps=474 q=-0.0 size=N/A time=00:01:52.65 bitrate=N/A speed=19.8x    frame= 2856 fps=460 q=-0.0 size=N/A time=00:01:59.11 bitrate=N/A speed=19.2x    frame= 3020 fps=450 q=-0.0 size=N/A time=00:02:05.95 bitrate=N/A speed=18.8x    frame= 3236 fps=447 q=-0.0 size=N/A time=00:02:14.96 bitrate=N/A speed=18.6x    frame= 3471 fps=447 q=-0.0 size=N/A time=00:02:24.76 bitrate=N/A speed=18.7x    frame= 3658 fps=443 q=-0.0 size=N/A time=00:02:32.56 bitrate=N/A speed=18.5x    frame= 3877 fps=441 q=-0.0 size=N/A time=00:02:41.70 bitrate=N/A speed=18.4x    frame= 4056 fps=436 q=-0.0 size=N/A time=00:02:49.16 bitrate=N/A speed=18.2x    frame= 4218 fps=430 q=-0.0 size=N/A time=00:02:55.92 bitrate=N/A speed=17.9x    frame= 4433 fps=429 q=-0.0 size=N/A time=00:03:04.89 bitrate=N/A speed=17.9x    frame= 4608 fps=425 q=-0.0 size=N/A time=00:03:12.19 bitrate=N/A speed=17.7x    frame= 4815 fps=424 q=-0.0 size=N/A time=00:03:20.82 bitrate=N/A speed=17.7x    frame= 5042 fps=424 q=-0.0 size=N/A time=00:03:30.29 bitrate=N/A speed=17.7x    frame= 5286 fps=426 q=-0.0 size=N/A time=00:03:40.47 bitrate=N/A speed=17.8x    frame= 5525 fps=428 q=-0.0 size=N/A time=00:03:50.43 bitrate=N/A speed=17.9x    frame= 5789 fps=431 q=-0.0 size=N/A time=00:04:01.44 bitrate=N/A speed=  18x    frame= 6025 fps=432 q=-0.0 size=N/A time=00:04:11.29 bitrate=N/A speed=  18x    frame= 6280 fps=434 q=-0.0 size=N/A time=00:04:21.92 bitrate=N/A speed=18.1x    frame= 6521 fps=436 q=-0.0 size=N/A time=00:04:31.98 bitrate=N/A speed=18.2x    frame= 6774 fps=437 q=-0.0 size=N/A time=00:04:42.53 bitrate=N/A speed=18.2x    frame= 6918 fps=432 q=-0.0 size=N/A time=00:04:48.53 bitrate=N/A speed=  18x    frame= 7183 fps=435 q=-0.0 size=N/A time=00:04:59.59 bitrate=N/A speed=18.1x    frame= 7460 fps=438 q=-0.0 size=N/A time=00:05:11.14 bitrate=N/A speed=18.3x    frame= 7742 fps=441 q=-0.0 size=N/A time=00:05:22.90 bitrate=N/A speed=18.4x    frame= 8020 fps=444 q=-0.0 size=N/A time=00:05:34.50 bitrate=N/A speed=18.5x    frame= 8296 fps=446 q=-0.0 size=N/A time=00:05:46.01 bitrate=N/A speed=18.6x    frame= 8552 fps=448 q=-0.0 size=N/A time=00:05:56.68 bitrate=N/A speed=18.7x    frame= 8787 fps=448 q=-0.0 size=N/A time=00:06:06.49 bitrate=N/A speed=18.7x    frame= 8993 fps=447 q=-0.0 size=N/A time=00:06:15.08 bitrate=N/A speed=18.6x    frame= 9190 fps=445 q=-0.0 size=N/A time=00:06:23.29 bitrate=N/A speed=18.6x    frame= 9402 fps=444 q=-0.0 size=N/A time=00:06:32.14 bitrate=N/A speed=18.5x    frame= 9610 fps=443 q=-0.0 size=N/A time=00:06:40.81 bitrate=N/A speed=18.5x    frame= 9863 fps=444 q=-0.0 size=N/A time=00:06:51.36 bitrate=N/A speed=18.5x    frame=10116 fps=446 q=-0.0 size=N/A time=00:07:01.92 bitrate=N/A speed=18.6x    frame=10377 fps=447 q=-0.0 size=N/A time=00:07:12.80 bitrate=N/A speed=18.6x    frame=10597 fps=446 q=-0.0 size=N/A time=00:07:21.98 bitrate=N/A speed=18.6x    frame=10802 fps=445 q=-0.0 size=N/A time=00:07:30.53 bitrate=N/A speed=18.6x    frame=11052 fps=446 q=-0.0 size=N/A time=00:07:40.96 bitrate=N/A speed=18.6x    frame=11309 fps=447 q=-0.0 size=N/A time=00:07:51.67 bitrate=N/A speed=18.7x    frame=11572 fps=449 q=-0.0 size=N/A time=00:08:02.64 bitrate=N/A speed=18.7x    frame=11831 fps=450 q=-0.0 size=N/A time=00:08:13.45 bitrate=N/A speed=18.8x    frame=12115 fps=451 q=-0.0 size=N/A time=00:08:25.29 bitrate=N/A speed=18.8x    frame=12299 fps=449 q=-0.0 size=N/A time=00:08:32.97 bitrate=N/A speed=18.7x    frame=12467 fps=447 q=-0.0 size=N/A time=00:08:39.97 bitrate=N/A speed=18.6x    frame=12667 fps=446 q=-0.0 size=N/A time=00:08:48.31 bitrate=N/A speed=18.6x    frame=12935 fps=447 q=-0.0 size=N/A time=00:08:59.49 bitrate=N/A speed=18.7x    frame=13180 fps=448 q=-0.0 size=N/A time=00:09:09.71 bitrate=N/A speed=18.7x    frame=13416 fps=448 q=-0.0 size=N/A time=00:09:19.55 bitrate=N/A speed=18.7x    frame=13562 fps=445 q=-0.0 size=N/A time=00:09:25.64 bitrate=N/A speed=18.6x    frame=13692 fps=442 q=-0.0 size=N/A time=00:09:31.07 bitrate=N/A speed=18.4x    frame=13899 fps=442 q=-0.0 size=N/A time=00:09:39.70 bitrate=N/A speed=18.4x    frame=14148 fps=442 q=-0.0 size=N/A time=00:09:50.08 bitrate=N/A speed=18.4x    frame=14342 fps=441 q=-0.0 size=N/A time=00:09:58.18 bitrate=N/A speed=18.4x    frame=14577 fps=441 q=-0.0 size=N/A time=00:10:07.98 bitrate=N/A speed=18.4x    frame=14850 fps=443 q=-0.0 size=N/A time=00:10:19.36 bitrate=N/A speed=18.5x    frame=15099 fps=443 q=-0.0 size=N/A time=00:10:29.75 bitrate=N/A speed=18.5x    frame=15340 fps=444 q=-0.0 size=N/A time=00:10:39.80 bitrate=N/A speed=18.5x    frame=15585 fps=444 q=-0.0 size=N/A time=00:10:50.02 bitrate=N/A speed=18.5x    frame=15831 fps=444 q=-0.0 size=N/A time=00:11:00.28 bitrate=N/A speed=18.5x    frame=16061 fps=445 q=-0.0 size=N/A time=00:11:09.87 bitrate=N/A speed=18.5x    frame=16252 fps=443 q=-0.0 size=N/A time=00:11:17.84 bitrate=N/A speed=18.5x    frame=16491 fps=444 q=-0.0 size=N/A time=00:11:27.81 bitrate=N/A speed=18.5x    frame=16732 fps=444 q=-0.0 size=N/A time=00:11:37.86 bitrate=N/A speed=18.5x    frame=16959 fps=444 q=-0.0 size=N/A time=00:11:47.33 bitrate=N/A speed=18.5x    frame=17209 fps=445 q=-0.0 size=N/A time=00:11:57.75 bitrate=N/A speed=18.5x    frame=17464 fps=445 q=-0.0 size=N/A time=00:12:08.39 bitrate=N/A speed=18.6x    frame=17741 fps=446 q=-0.0 size=N/A time=00:12:19.94 bitrate=N/A speed=18.6x    frame=18010 fps=447 q=-0.0 size=N/A time=00:12:31.16 bitrate=N/A speed=18.7x    frame=18235 fps=447 q=-0.0 size=N/A time=00:12:40.55 bitrate=N/A speed=18.7x    frame=18485 fps=448 q=-0.0 size=N/A time=00:12:50.97 bitrate=N/A speed=18.7x    frame=18725 fps=448 q=-0.0 size=N/A time=00:13:00.98 bitrate=N/A speed=18.7x    frame=18983 fps=449 q=-0.0 size=N/A time=00:13:11.74 bitrate=N/A speed=18.7x    frame=19245 fps=449 q=-0.0 size=N/A time=00:13:22.67 bitrate=N/A speed=18.7x    frame=19511 fps=450 q=-0.0 size=N/A time=00:13:33.77 bitrate=N/A speed=18.8x    frame=19781 fps=451 q=-0.0 size=N/A time=00:13:45.03 bitrate=N/A speed=18.8x    frame=20048 fps=452 q=-0.0 size=N/A time=00:13:56.16 bitrate=N/A speed=18.8x    frame=20326 fps=453 q=-0.0 size=N/A time=00:14:07.76 bitrate=N/A speed=18.9x    frame=20584 fps=453 q=-0.0 size=N/A time=00:14:18.56 bitrate=N/A speed=18.9x    frame=20851 fps=454 q=-0.0 size=N/A time=00:14:29.66 bitrate=N/A speed=18.9x    frame=21106 fps=454 q=-0.0 size=N/A time=00:14:40.29 bitrate=N/A speed=  19x    frame=21368 fps=455 q=-0.0 size=N/A time=00:14:51.22 bitrate=N/A speed=  19x    frame=21602 fps=455 q=-0.0 size=N/A time=00:15:00.98 bitrate=N/A speed=  19x    frame=21857 fps=455 q=-0.0 size=N/A time=00:15:11.61 bitrate=N/A speed=  19x    frame=22115 fps=456 q=-0.0 size=N/A time=00:15:22.37 bitrate=N/A speed=  19x    frame=22369 fps=456 q=-0.0 size=N/A time=00:15:32.97 bitrate=N/A speed=  19x    frame=22640 fps=457 q=-0.0 size=N/A time=00:15:44.27 bitrate=N/A speed=19.1x    frame=22873 fps=457 q=-0.0 size=N/A time=00:15:53.99 bitrate=N/A speed=19.1x    frame=23124 fps=457 q=-0.0 size=N/A time=00:16:04.46 bitrate=N/A speed=19.1x    frame=23356 fps=457 q=-0.0 size=N/A time=00:16:14.13 bitrate=N/A speed=19.1x    frame=23587 fps=457 q=-0.0 size=N/A time=00:16:23.77 bitrate=N/A speed=19.1x    frame=23837 fps=457 q=-0.0 size=N/A time=00:16:34.20 bitrate=N/A speed=19.1x    frame=24077 fps=457 q=-0.0 size=N/A time=00:16:44.21 bitrate=N/A speed=19.1x    frame=24305 fps=457 q=-0.0 size=N/A time=00:16:53.72 bitrate=N/A speed=19.1x    frame=24481 fps=456 q=-0.0 size=N/A time=00:17:01.06 bitrate=N/A speed=  19x    frame=24697 fps=456 q=-0.0 size=N/A time=00:17:10.07 bitrate=N/A speed=  19x    frame=24969 fps=456 q=-0.0 size=N/A time=00:17:21.41 bitrate=N/A speed=  19x    frame=25213 fps=457 q=-0.0 size=N/A time=00:17:31.59 bitrate=N/A speed=19.1x    frame=25472 fps=457 q=-0.0 size=N/A time=00:17:42.39 bitrate=N/A speed=19.1x    frame=25738 fps=458 q=-0.0 size=N/A time=00:17:53.48 bitrate=N/A speed=19.1x    frame=25958 fps=457 q=-0.0 size=N/A time=00:18:02.66 bitrate=N/A speed=19.1x    frame=26232 fps=458 q=-0.0 size=N/A time=00:18:14.09 bitrate=N/A speed=19.1x    frame=26484 fps=458 q=-0.0 size=N/A time=00:18:24.60 bitrate=N/A speed=19.1x    frame=26727 fps=458 q=-0.0 size=N/A time=00:18:34.73 bitrate=N/A speed=19.1x    frame=26988 fps=459 q=-0.0 size=N/A time=00:18:45.62 bitrate=N/A speed=19.1x    frame=27158 fps=458 q=-0.0 size=N/A time=00:18:52.71 bitrate=N/A speed=19.1x    frame=27388 fps=458 q=-0.0 size=N/A time=00:19:02.30 bitrate=N/A speed=19.1x    frame=27629 fps=458 q=-0.0 size=N/A time=00:19:12.35 bitrate=N/A speed=19.1x    frame=27813 fps=457 q=-0.0 size=N/A time=00:19:20.03 bitrate=N/A speed=19.1x    frame=28071 fps=457 q=-0.0 size=N/A time=00:19:30.79 bitrate=N/A speed=19.1x    frame=28351 fps=458 q=-0.0 size=N/A time=00:19:42.47 bitrate=N/A speed=19.1x    frame=28634 fps=459 q=-0.0 size=N/A time=00:19:54.27 bitrate=N/A speed=19.1x    frame=28887 fps=459 q=-0.0 size=N/A time=00:20:04.82 bitrate=N/A speed=19.1x    frame=29105 fps=459 q=-0.0 size=N/A time=00:20:13.92 bitrate=N/A speed=19.1x    frame=29346 fps=459 q=-0.0 size=N/A time=00:20:23.97 bitrate=N/A speed=19.1x    frame=29639 fps=460 q=-0.0 size=N/A time=00:20:36.19 bitrate=N/A speed=19.2x    frame=29880 fps=460 q=-0.0 size=N/A time=00:20:46.24 bitrate=N/A speed=19.2x    frame=30136 fps=460 q=-0.0 size=N/A time=00:20:56.92 bitrate=N/A speed=19.2x    frame=30392 fps=460 q=-0.0 size=N/A time=00:21:07.59 bitrate=N/A speed=19.2x    frame=30601 fps=460 q=-0.0 size=N/A time=00:21:16.31 bitrate=N/A speed=19.2x    frame=30848 fps=460 q=-0.0 size=N/A time=00:21:26.61 bitrate=N/A speed=19.2x    frame=31085 fps=460 q=-0.0 size=N/A time=00:21:36.50 bitrate=N/A speed=19.2x    frame=31324 fps=460 q=-0.0 size=N/A time=00:21:46.47 bitrate=N/A speed=19.2x    frame=31547 fps=460 q=-0.0 size=N/A time=00:21:55.77 bitrate=N/A speed=19.2x    frame=31808 fps=460 q=-0.0 size=N/A time=00:22:06.65 bitrate=N/A speed=19.2x    frame=32037 fps=460 q=-0.0 size=N/A time=00:22:16.20 bitrate=N/A speed=19.2x    frame=32280 fps=460 q=-0.0 size=N/A time=00:22:26.34 bitrate=N/A speed=19.2x    frame=32443 fps=459 q=-0.0 size=N/A time=00:22:33.14 bitrate=N/A speed=19.1x    frame=32591 fps=458 q=-0.0 size=N/A time=00:22:39.31 bitrate=N/A speed=19.1x    frame=32745 fps=457 q=-0.0 size=N/A time=00:22:45.73 bitrate=N/A speed=  19x    frame=32967 fps=456 q=-0.0 size=N/A time=00:22:54.99 bitrate=N/A speed=  19x    frame=33127 fps=455 q=-0.0 size=N/A time=00:23:01.67 bitrate=N/A speed=  19x    frame=33296 fps=454 q=-0.0 size=N/A time=00:23:08.72 bitrate=N/A speed=18.9x    frame=33497 fps=454 q=-0.0 size=N/A time=00:23:17.10 bitrate=N/A speed=18.9x    frame=33713 fps=454 q=-0.0 size=N/A time=00:23:26.11 bitrate=N/A speed=18.9x    frame=33878 fps=453 q=-0.0 size=N/A time=00:23:32.99 bitrate=N/A speed=18.9x    frame=34018 fps=451 q=-0.0 size=N/A time=00:23:38.83 bitrate=N/A speed=18.8x    frame=34164 fps=450 q=-0.0 size=N/A time=00:23:44.92 bitrate=N/A speed=18.8x    frame=34320 fps=449 q=-0.0 size=N/A time=00:23:51.43 bitrate=N/A speed=18.7x    frame=34497 fps=449 q=-0.0 size=N/A time=00:23:58.81 bitrate=N/A speed=18.7x    frame=34699 fps=448 q=-0.0 size=N/A time=00:24:07.23 bitrate=N/A speed=18.7x    [Parsed_psnr_10 @ 0000027fdcfcb300] PSNR y:48.600865 u:51.246876 v:50.362117 average:49.213697 min:39.772986 max:inf
[out#0/null @ 0000027fd02f67c0] video:14933KiB audio:271812KiB subtitle:0KiB other streams:0KiB global headers:0KiB muxing overhead: unknown
frame=34754 fps=448 q=-0.0 Lsize=N/A time=00:24:09.53 bitrate=N/A speed=18.7x    
